<?xml version="1.0" encoding="utf-8"?>
<!-- Generator: Adobe Illustrator 22.0.1, SVG Export Plug-In . SVG Version: 6.00 Build 0)  -->
<svg version="1.1" xmlns="http://www.w3.org/2000/svg" xmlns:xlink="http://www.w3.org/1999/xlink" x="0px" y="0px"
	 viewBox="0 0 375 50" style="enable-background:new 0 0 375 50;" xml:space="preserve">
<style type="text/css">
	.st0{fill:#BD35C8;}
	.st1{fill:#F1994A;}
	.st2{fill:#475B93;}
	.st3{fill:#A52EB1;}
	.st4{fill:#3EA4AF;}
	.st5{fill:#FF9B3C;}
	.st6{fill:#6F33B3;}
	.st7{fill:#55CEBF;}
	.st8{fill:#FFBE4F;}
	.st9{fill:#542788;}
	.st10{fill:#65E2D0;}
	.st11{fill:#FFE33B;}
</style>
<g id="Calque_2">
	<g>
		<g transform="matrix( 1, 0, 0, 1, 0,0) ">
			<g>
				<g id="Layer7_0_FILL">
					<path class="st0" d="M64.1,0v48.6c-4.9-0.3-9.6-0.7-14-1.2c-1-0.1-2.1-0.2-3.1-0.3c-5-0.6-9.7-1.2-14.1-2
						c-4.5-0.8-8.6-1.6-12.3-2.6C11.8,40.3,5,37.6,0,34.5V0H64.1z"/>
					<path class="st1" d="M272.2,0v50h2.4l0.1,0c2.6,0,5.2-0.1,7.7-0.1c-0.1,0.5-0.2,1-0.3,1.4h0c0.1-0.5,0.2-0.9,0.3-1.4
						c3-0.1,5.9-0.1,8.7-0.2c6.3-0.2,12.4-0.5,18.1-0.9c0.4,0,0.8,0,1.2-0.1c9.8-0.7,18.6-1.6,26.4-2.8c0.2,0,0.3,0,0.5-0.1
						c8.4-1.3,15.7-2.8,21.8-4.6c5.8-1.7,10.6-3.7,14.4-5.9c0.5-0.3,0.9-0.5,1.4-0.8V0H272.2z M64.1,0v48.6
						c9.7,0.7,20.3,1.1,31.9,1.3c1.7,0,3.4,0,5.2,0.1l11.1-19.9L129,0H64.1z"/>
					<path class="st2" d="M272.2,0v50H109.3c-2.8,0-5.5,0-8.2,0l11.1-19.9L129,0H272.2z"/>
				</g>
			</g>
		</g>
		<g transform="matrix( 1, 0, 0, 1, 0,0) ">
			<g>
				<g id="Layer6_0_FILL">
					<path class="st3" d="M31.9,24.8c-0.3,6.7,0,12.8,0.8,18.2c0.1,0.7,0.2,1.4,0.3,2c-4.5-0.8-8.6-1.6-12.3-2.6
						C11.8,40.3,5,37.6,0,34.5V0h34c-0.2,2.2-0.4,4.4-0.6,6.5C32.5,14.8,32,20.8,31.9,24.8z"/>
					<path class="st4" d="M248.8,35.6c-1.7-9.8-2.7-15.8-3-18c-0.9-6.5-2.1-12.4-3.6-17.6h-73c-1.5,2.1-2.9,4.3-4.4,6.6
						c-4.3,6.7-8,12-11,16.1c-1.4,1.8-4.7,6.2-10.1,13.2c-3.9,5.1-7.7,9.8-11.3,14.1H251C250.5,45.8,249.7,41,248.8,35.6z M254.9,0
						c0.9,5.9,2.1,13.5,3.5,22.7c1.9,11.6,3.5,20.7,4.7,27.3h11.5l0.1,0c2.6,0,5.2-0.1,7.7-0.1c1.1-5,2.4-11.4,3.9-19.1
						c3.2-16.2,5-26.4,5.4-30.7H254.9z"/>
					<path class="st5" d="M51.9,0c-0.9,7.9-1.7,15.9-2.4,23.9c-0.6,7.9-0.5,15.8,0.5,23.5c4.4,0.5,9.1,0.9,14,1.2
						c9.7,0.7,20.3,1.1,31.9,1.3c1.7,0,3.4,0,5.2,0.1c2.7,0,5.4,0,8.2,0h3.2c10.8-9.6,19-18,24.6-25c4.5-5.7,7.6-13,9.2-21.9
						c0.2-1.1,0.4-2.1,0.5-3.2H51.9z M291.8,0c-0.5,4.3-2.3,14.6-5.4,30.7c-1.5,7.7-2.8,14.1-3.9,19.1c3-0.1,5.9-0.1,8.7-0.2
						c6.3-0.2,12.4-0.5,18.1-0.9c0.4,0,0.8,0,1.2-0.1c9.8-0.7,18.6-1.6,26.4-2.8c0.2,0,0.3,0,0.5-0.1c8.4-1.3,15.7-2.8,21.8-4.6
						c5.8-1.7,10.6-3.7,14.4-5.9c0.5-0.3,0.9-0.5,1.4-0.8V0H291.8z"/>
				</g>
			</g>
		</g>
		<g transform="matrix( 1, 0, 0, 1, 0,0) ">
			<g>
				<g id="Layer5_0_FILL">
					<path class="st6" d="M24.9,0c-0.1,4.7-0.3,10-0.6,15.7l-0.6,10.5c-0.5,5.4-1.2,9.9-2.2,13.6c-0.3,1-0.5,1.9-0.8,2.7
						C11.8,40.3,5,37.6,0,34.5V0H24.9z"/>
					<path class="st7" d="M228.2,50H150c2.7-3.9,5.5-8.2,8.4-12.9c4.3-7.1,10.1-17.1,17.2-30c1.5-2.6,3-4.9,4.4-7.1h46
						c1.2,5.5,2,12.2,2.4,20C228.8,28.6,228.8,38.6,228.2,50z"/>
					<path class="st8" d="M60,0c-1.1,8.3-1.7,16.7-1.8,25.2c-0.1,6,1.2,11.2,3.9,15.6c0.6,1,1.3,1.9,2,2.5c1.3,1.3,2.8,2.1,4.5,2.4
						c11.7,2.2,22.4,0.2,31.9-5.8c3.2-2,6.5-4.6,9.9-7.9c0.5-0.5,1.1-1.1,1.9-1.9c1.2-1.2,2.9-2.9,4.8-4.8
						c8.8-8.2,14.3-16.6,16.5-25.3H60z M358.7,40.4c-3.4-5.6-6.2-10.3-8.4-14.1c-3-5.4-6-11.5-9-18.5c-1.1-2.6-2.1-5.2-3-7.8h-37.4
						c-2.6,16.2-4.4,25.9-5.2,29c-0.3,1.3-1.8,8.1-4.4,20.6c6.3-0.2,12.4-0.5,18.1-0.9c0.4,0,0.8,0,1.2-0.1
						c9.8-0.7,18.6-1.6,26.4-2.8c0.2,0,0.3,0,0.5-0.1c8.4-1.3,15.7-2.8,21.8-4.6L358.7,40.4z"/>
					<path class="st0" d="M375,0v29.1c-2.7-2.1-5.3-4.1-8.1-6.1c-5.4-4-10.2-9.1-14.5-15.3c-1.7-2.4-3.2-5-4.5-7.7H375z"/>
				</g>
			</g>
		</g>
		<g transform="matrix( 1, 0, 0, 1, 0,0) ">
			<g>
				<g id="Layer4_0_FILL">
					<path class="st9" d="M12.3,12.7c-0.2,4.2-1,7.5-2.4,10.1c-1.6,2.9-3.7,4.4-6.4,4.3c-1,0-2.2-0.4-3.5-1.2V0h10.5
						c0.2,0.6,0.5,1.3,0.7,2.1C12.1,5.3,12.5,8.8,12.3,12.7z"/>
					<path class="st10" d="M213.7,8.9c0.1,3.5-0.3,7.1-1.1,10.8c-2,8.5-5.9,14.9-11.7,19.3c-6.4,4.8-12.6,4.7-18.7-0.5
						c-1.4-1.2-2.4-2.9-2.9-5c-0.6-2.6-0.7-5.2-0.3-7.8c0.4-2.4,1.2-4.8,2.6-7.4c4.3-8.1,8.3-14.2,12.2-18.3h18.4
						C213,2.5,213.6,5.5,213.7,8.9z"/>
					<path class="st11" d="M334,41.3c-0.6-0.9-1.2-1.8-2-2.8c-0.4-0.5-0.7-0.9-1-1.2c-1.2-1.5-2.1-2.6-2.7-3.3
						c-1.1-1.3-2-2.2-2.8-2.9c-2.2-1.8-4.2-2.1-6-0.9c-2.9,2-5.9,8.1-8.9,18.5c9.8-0.7,18.6-1.6,26.4-2.8L334,41.3z M74.3,0
						c0,1.1-0.1,2.3-0.1,3.4c-0.4,8.7,0.6,14.7,3,18.2c4.7,6.7,14.3,2.6,28.7-12.3c3-3.1,5.5-6.2,7.3-9.3H74.3z"/>
					<path class="st3" d="M375,0v7.2c-1.9-0.3-3.9-0.8-6-1.4c-4.4-1.3-8-3.2-10.7-5.7H375z"/>
					<path class="st7" d="M280.9,0c-2.6,14.8-5.5,22.6-8.7,23.2c-0.2,0-0.4,0.1-0.5,0c-2.7-0.1-4.5-7.9-5.4-23.3H280.9z"/>
				</g>
			</g>
		</g>
	</g>
</g>
<g id="Calque_1">
</g>
</svg>
